<mxfile host="app.diagrams.net" modified="2024-06-22T19:51:17.225Z" agent="Mozilla/5.0 (Windows NT 10.0; Win64; x64) AppleWebKit/537.36 (KHTML, like Gecko) Chrome/123.0.0.0 Safari/537.36 OPR/109.0.0.0" etag="XfL51-43ObY-JgDqzdqM" version="24.6.2" type="github">
  <diagram name="Page-1" id="2Kk4TbtQujGMzMxTY5Ah">
    <mxGraphModel dx="1009" dy="550" grid="1" gridSize="10" guides="1" tooltips="1" connect="1" arrows="1" fold="1" page="1" pageScale="1" pageWidth="850" pageHeight="1100" math="0" shadow="0">
      <root>
        <mxCell id="0" />
        <mxCell id="1" parent="0" />
        <mxCell id="G36CuPUE4QlEGweFmb7e-1" value="" style="verticalLabelPosition=bottom;html=1;verticalAlign=top;align=center;strokeColor=none;fillColor=#00BEF2;shape=mxgraph.azure.mobile;pointerEvents=1;" vertex="1" parent="1">
          <mxGeometry x="130.5" y="190" width="70" height="100" as="geometry" />
        </mxCell>
        <mxCell id="G36CuPUE4QlEGweFmb7e-2" value="" style="shape=image;html=1;verticalAlign=top;verticalLabelPosition=bottom;labelBackgroundColor=#000000;imageAspect=0;aspect=fixed;image=https://cdn1.iconfinder.com/data/icons/iconoir-vol-3/24/qr-code-128.png;fillColor=#000000;" vertex="1" parent="1">
          <mxGeometry x="141" y="215.5" width="49" height="49" as="geometry" />
        </mxCell>
        <mxCell id="G36CuPUE4QlEGweFmb7e-3" value="username&lt;div&gt;password&lt;/div&gt;&lt;div&gt;isValidQr&lt;/div&gt;&lt;div&gt;amount&lt;/div&gt;" style="whiteSpace=wrap;html=1;aspect=fixed;" vertex="1" parent="1">
          <mxGeometry x="20" y="200" width="80" height="80" as="geometry" />
        </mxCell>
        <mxCell id="G36CuPUE4QlEGweFmb7e-5" style="edgeStyle=orthogonalEdgeStyle;rounded=0;orthogonalLoop=1;jettySize=auto;html=1;exitX=1;exitY=0.5;exitDx=0;exitDy=0;" edge="1" parent="1" source="G36CuPUE4QlEGweFmb7e-3">
          <mxGeometry relative="1" as="geometry">
            <mxPoint x="130" y="240" as="targetPoint" />
          </mxGeometry>
        </mxCell>
        <mxCell id="G36CuPUE4QlEGweFmb7e-9" style="edgeStyle=orthogonalEdgeStyle;rounded=0;orthogonalLoop=1;jettySize=auto;html=1;exitX=0.93;exitY=0.5;exitDx=0;exitDy=0;exitPerimeter=0;" edge="1" parent="1" source="G36CuPUE4QlEGweFmb7e-6" target="G36CuPUE4QlEGweFmb7e-8">
          <mxGeometry relative="1" as="geometry" />
        </mxCell>
        <mxCell id="G36CuPUE4QlEGweFmb7e-6" value="" style="shape=mxgraph.cisco.computers_and_peripherals.scanner;html=1;pointerEvents=1;dashed=0;fillColor=#036897;strokeColor=#ffffff;strokeWidth=2;verticalLabelPosition=bottom;verticalAlign=top;align=center;outlineConnect=0;" vertex="1" parent="1">
          <mxGeometry x="310" y="203" width="80" height="75" as="geometry" />
        </mxCell>
        <mxCell id="G36CuPUE4QlEGweFmb7e-7" style="edgeStyle=orthogonalEdgeStyle;rounded=0;orthogonalLoop=1;jettySize=auto;html=1;exitX=1;exitY=0.5;exitDx=0;exitDy=0;exitPerimeter=0;entryX=0.33;entryY=0.5;entryDx=0;entryDy=0;entryPerimeter=0;" edge="1" parent="1" source="G36CuPUE4QlEGweFmb7e-1" target="G36CuPUE4QlEGweFmb7e-6">
          <mxGeometry relative="1" as="geometry" />
        </mxCell>
        <mxCell id="G36CuPUE4QlEGweFmb7e-13" style="edgeStyle=orthogonalEdgeStyle;rounded=0;orthogonalLoop=1;jettySize=auto;html=1;" edge="1" parent="1" source="G36CuPUE4QlEGweFmb7e-8" target="G36CuPUE4QlEGweFmb7e-12">
          <mxGeometry relative="1" as="geometry" />
        </mxCell>
        <mxCell id="G36CuPUE4QlEGweFmb7e-8" value="" style="dashed=0;outlineConnect=0;html=1;align=center;labelPosition=center;verticalLabelPosition=bottom;verticalAlign=top;shape=mxgraph.weblogos.json_2" vertex="1" parent="1">
          <mxGeometry x="425" y="227.4" width="80.4" height="25.200000000000003" as="geometry" />
        </mxCell>
        <mxCell id="G36CuPUE4QlEGweFmb7e-15" value="" style="edgeStyle=orthogonalEdgeStyle;rounded=0;orthogonalLoop=1;jettySize=auto;html=1;" edge="1" parent="1" source="G36CuPUE4QlEGweFmb7e-12" target="G36CuPUE4QlEGweFmb7e-14">
          <mxGeometry relative="1" as="geometry" />
        </mxCell>
        <mxCell id="G36CuPUE4QlEGweFmb7e-12" value="" style="aspect=fixed;sketch=0;html=1;dashed=0;whitespace=wrap;verticalLabelPosition=bottom;verticalAlign=top;fillColor=#2875E2;strokeColor=#ffffff;points=[[0.005,0.63,0],[0.1,0.2,0],[0.9,0.2,0],[0.5,0,0],[0.995,0.63,0],[0.72,0.99,0],[0.5,1,0],[0.28,0.99,0]];shape=mxgraph.kubernetes.icon2;prIcon=api" vertex="1" parent="1">
          <mxGeometry x="570" y="216.5" width="50" height="48" as="geometry" />
        </mxCell>
        <mxCell id="G36CuPUE4QlEGweFmb7e-24" value="" style="edgeStyle=orthogonalEdgeStyle;rounded=0;orthogonalLoop=1;jettySize=auto;html=1;" edge="1" parent="1" source="G36CuPUE4QlEGweFmb7e-14" target="G36CuPUE4QlEGweFmb7e-23">
          <mxGeometry relative="1" as="geometry">
            <Array as="points">
              <mxPoint x="728" y="300" />
              <mxPoint x="728" y="300" />
            </Array>
          </mxGeometry>
        </mxCell>
        <mxCell id="G36CuPUE4QlEGweFmb7e-32" value="" style="edgeStyle=orthogonalEdgeStyle;rounded=0;orthogonalLoop=1;jettySize=auto;html=1;" edge="1" parent="1" source="G36CuPUE4QlEGweFmb7e-14" target="G36CuPUE4QlEGweFmb7e-31">
          <mxGeometry relative="1" as="geometry" />
        </mxCell>
        <mxCell id="G36CuPUE4QlEGweFmb7e-14" value="&lt;div&gt;&lt;br&gt;&lt;/div&gt;&lt;div&gt;&lt;br&gt;&lt;/div&gt;&lt;div&gt;ifUservalid&lt;/div&gt;" style="rhombus;whiteSpace=wrap;html=1;verticalAlign=top;fillColor=#2875E2;strokeColor=#ffffff;sketch=0;dashed=0;" vertex="1" parent="1">
          <mxGeometry x="685" y="200.5" width="80" height="80" as="geometry" />
        </mxCell>
        <mxCell id="G36CuPUE4QlEGweFmb7e-26" value="" style="edgeStyle=orthogonalEdgeStyle;rounded=0;orthogonalLoop=1;jettySize=auto;html=1;" edge="1" parent="1" source="G36CuPUE4QlEGweFmb7e-23" target="G36CuPUE4QlEGweFmb7e-25">
          <mxGeometry relative="1" as="geometry" />
        </mxCell>
        <mxCell id="G36CuPUE4QlEGweFmb7e-29" value="" style="edgeStyle=orthogonalEdgeStyle;rounded=0;orthogonalLoop=1;jettySize=auto;html=1;" edge="1" parent="1" source="G36CuPUE4QlEGweFmb7e-23" target="G36CuPUE4QlEGweFmb7e-28">
          <mxGeometry relative="1" as="geometry" />
        </mxCell>
        <mxCell id="G36CuPUE4QlEGweFmb7e-23" value="&lt;div&gt;&lt;br&gt;&lt;/div&gt;&lt;div&gt;&lt;br&gt;&lt;/div&gt;&lt;div&gt;Is QR valid&lt;/div&gt;" style="rhombus;whiteSpace=wrap;html=1;verticalAlign=top;fillColor=#2875E2;strokeColor=#ffffff;sketch=0;dashed=0;" vertex="1" parent="1">
          <mxGeometry x="685" y="360.5" width="85" height="89.5" as="geometry" />
        </mxCell>
        <mxCell id="G36CuPUE4QlEGweFmb7e-59" value="" style="edgeStyle=orthogonalEdgeStyle;rounded=0;orthogonalLoop=1;jettySize=auto;html=1;" edge="1" parent="1" source="G36CuPUE4QlEGweFmb7e-25" target="G36CuPUE4QlEGweFmb7e-57">
          <mxGeometry relative="1" as="geometry" />
        </mxCell>
        <mxCell id="G36CuPUE4QlEGweFmb7e-25" value="&lt;div&gt;&lt;br&gt;&lt;/div&gt;&lt;div&gt;&lt;br&gt;&lt;/div&gt;&lt;div&gt;Is amount enough&lt;/div&gt;" style="rhombus;whiteSpace=wrap;html=1;verticalAlign=top;fillColor=#2875E2;strokeColor=#ffffff;sketch=0;dashed=0;" vertex="1" parent="1">
          <mxGeometry x="680" y="540" width="95" height="90" as="geometry" />
        </mxCell>
        <mxCell id="G36CuPUE4QlEGweFmb7e-30" style="edgeStyle=orthogonalEdgeStyle;rounded=0;orthogonalLoop=1;jettySize=auto;html=1;" edge="1" parent="1" source="G36CuPUE4QlEGweFmb7e-28" target="G36CuPUE4QlEGweFmb7e-6">
          <mxGeometry relative="1" as="geometry" />
        </mxCell>
        <mxCell id="G36CuPUE4QlEGweFmb7e-28" value="&lt;div&gt;&lt;br&gt;&lt;/div&gt;&lt;div&gt;Qr has been expired&lt;/div&gt;" style="whiteSpace=wrap;html=1;verticalAlign=top;fillColor=#2875E2;strokeColor=#ffffff;sketch=0;dashed=0;" vertex="1" parent="1">
          <mxGeometry x="460" y="375.25" width="120" height="60" as="geometry" />
        </mxCell>
        <mxCell id="G36CuPUE4QlEGweFmb7e-33" style="edgeStyle=orthogonalEdgeStyle;rounded=0;orthogonalLoop=1;jettySize=auto;html=1;" edge="1" parent="1" source="G36CuPUE4QlEGweFmb7e-31" target="G36CuPUE4QlEGweFmb7e-6">
          <mxGeometry relative="1" as="geometry">
            <mxPoint x="370" y="190" as="targetPoint" />
          </mxGeometry>
        </mxCell>
        <mxCell id="G36CuPUE4QlEGweFmb7e-31" value="&lt;div&gt;&lt;br&gt;&lt;/div&gt;&lt;div&gt;User or password&lt;/div&gt;&lt;div&gt;is not true&lt;/div&gt;" style="whiteSpace=wrap;html=1;verticalAlign=top;fillColor=#2875E2;strokeColor=#ffffff;sketch=0;dashed=0;" vertex="1" parent="1">
          <mxGeometry x="665" y="50.5" width="120" height="60" as="geometry" />
        </mxCell>
        <mxCell id="G36CuPUE4QlEGweFmb7e-34" value="Yes" style="text;html=1;align=center;verticalAlign=middle;resizable=0;points=[];autosize=1;strokeColor=none;fillColor=none;" vertex="1" parent="1">
          <mxGeometry x="730" y="264.5" width="40" height="30" as="geometry" />
        </mxCell>
        <mxCell id="G36CuPUE4QlEGweFmb7e-35" value="Yes" style="text;html=1;align=center;verticalAlign=middle;resizable=0;points=[];autosize=1;strokeColor=none;fillColor=none;" vertex="1" parent="1">
          <mxGeometry x="730" y="435.25" width="40" height="30" as="geometry" />
        </mxCell>
        <mxCell id="G36CuPUE4QlEGweFmb7e-36" value="No" style="text;html=1;align=center;verticalAlign=middle;resizable=0;points=[];autosize=1;strokeColor=none;fillColor=none;" vertex="1" parent="1">
          <mxGeometry x="655" y="375.25" width="40" height="30" as="geometry" />
        </mxCell>
        <mxCell id="G36CuPUE4QlEGweFmb7e-37" value="No" style="text;html=1;align=center;verticalAlign=middle;resizable=0;points=[];autosize=1;strokeColor=none;fillColor=none;" vertex="1" parent="1">
          <mxGeometry x="725" y="178" width="40" height="30" as="geometry" />
        </mxCell>
        <mxCell id="G36CuPUE4QlEGweFmb7e-61" style="edgeStyle=orthogonalEdgeStyle;rounded=0;orthogonalLoop=1;jettySize=auto;html=1;exitX=0.55;exitY=0.95;exitDx=0;exitDy=0;exitPerimeter=0;" edge="1" parent="1" source="G36CuPUE4QlEGweFmb7e-57" target="G36CuPUE4QlEGweFmb7e-60">
          <mxGeometry relative="1" as="geometry" />
        </mxCell>
        <mxCell id="G36CuPUE4QlEGweFmb7e-57" value="&lt;div&gt;&lt;br&gt;&lt;/div&gt;&lt;div&gt;&lt;br&gt;&lt;/div&gt;&lt;div&gt;&lt;br&gt;&lt;/div&gt;&lt;div&gt;withdraw amount from user table increase merchant balance&lt;br&gt;&lt;/div&gt;" style="ellipse;shape=cloud;whiteSpace=wrap;html=1;verticalAlign=top;fillColor=#2875E2;strokeColor=#ffffff;sketch=0;dashed=0;" vertex="1" parent="1">
          <mxGeometry x="620" y="680" width="220" height="120" as="geometry" />
        </mxCell>
        <mxCell id="G36CuPUE4QlEGweFmb7e-60" value="DB" style="shape=cylinder3;whiteSpace=wrap;html=1;boundedLbl=1;backgroundOutline=1;size=15;" vertex="1" parent="1">
          <mxGeometry x="715" y="830" width="60" height="80" as="geometry" />
        </mxCell>
        <mxCell id="G36CuPUE4QlEGweFmb7e-63" style="edgeStyle=orthogonalEdgeStyle;rounded=0;orthogonalLoop=1;jettySize=auto;html=1;exitX=0.855;exitY=0;exitDx=0;exitDy=4.35;exitPerimeter=0;entryX=0.664;entryY=0.917;entryDx=0;entryDy=0;entryPerimeter=0;" edge="1" parent="1" source="G36CuPUE4QlEGweFmb7e-60" target="G36CuPUE4QlEGweFmb7e-57">
          <mxGeometry relative="1" as="geometry" />
        </mxCell>
        <mxCell id="G36CuPUE4QlEGweFmb7e-64" style="edgeStyle=orthogonalEdgeStyle;rounded=0;orthogonalLoop=1;jettySize=auto;html=1;entryX=0.05;entryY=1;entryDx=0;entryDy=0;entryPerimeter=0;" edge="1" parent="1" source="G36CuPUE4QlEGweFmb7e-57" target="G36CuPUE4QlEGweFmb7e-6">
          <mxGeometry relative="1" as="geometry" />
        </mxCell>
      </root>
    </mxGraphModel>
  </diagram>
</mxfile>
